<svg class="svg-icon" style="width: 1em; height: 1em;vertical-align: middle;fill: currentColor;overflow: hidden;" viewBox="0 0 1024 1024" version="1.1" xmlns="http://www.w3.org/2000/svg"><path d="M510.669731 127.910463c-213.45698 0-383.424403 168.944139-383.424403 382.401119 0 213.45698 169.967423 386.494254 383.424403 386.494254 213.45698 0 385.47097-173.037274 385.47097-386.494254C896.140702 296.854602 724.126711 127.910463 510.669731 127.910463zM692.81423 656.027181c10.02818 10.02818 10.02818 26.400719 0 36.4289-10.02818 10.02818-26.400719 10.02818-36.4289 0L510.669731 546.638153 364.954132 692.456081c-10.02818 10.02818-26.400719 10.02818-36.4289 0-10.02818-10.02818-10.02818-26.400719 0-36.4289l145.715599-145.715599L328.525232 364.493654c-10.02818-10.02818-10.02818-26.400719 0-36.4289 10.02818-10.02818 26.400719-10.02818 36.4289 0l145.715599 145.715599 145.715599-145.715599c10.02818-10.02818 26.400719-10.02818 36.4289 0 10.02818 10.02818 10.02818 26.400719 0 36.4289L547.098631 510.209254 692.81423 656.027181z"  /></svg>